<svg xmlns="http://www.w3.org/2000/svg" width="1600" height="900" viewBox="0 0 1600 900" role="img" aria-label="IA Comercial Estratégica — Inteligência de Negócios com IA">
  <defs>
    <linearGradient id="bg" x1="0" y1="0" x2="1" y2="1">
      <stop offset="0" stop-color="#0B1220"/>
      <stop offset="0.45" stop-color="#0E1A35"/>
      <stop offset="1" stop-color="#111827"/>
    </linearGradient>
    <linearGradient id="accent" x1="0" y1="0" x2="1" y2="0">
      <stop offset="0" stop-color="#2563EB"/>
      <stop offset="0.55" stop-color="#4F46E5"/>
      <stop offset="1" stop-color="#7C3AED"/>
    </linearGradient>
    <linearGradient id="card" x1="0" y1="0" x2="0" y2="1">
      <stop offset="0" stop-color="#111C33"/>
      <stop offset="1" stop-color="#0B1220"/>
    </linearGradient>
    <filter id="shadow" x="-20%" y="-20%" width="140%" height="140%">
      <feDropShadow dx="0" dy="18" stdDeviation="18" flood-color="#000000" flood-opacity="0.35"/>
    </filter>
    <filter id="glow" x="-40%" y="-40%" width="180%" height="180%">
      <feGaussianBlur stdDeviation="14" result="b"/>
      <feColorMatrix in="b" type="matrix" values="1 0 0 0 0.15  0 1 0 0 0.35  0 0 1 0 0.85  0 0 0 0.85 0"/>
      <feMerge>
        <feMergeNode/>
        <feMergeNode in="SourceGraphic"/>
      </feMerge>
    </filter>
  </defs>

  <rect width="1600" height="900" fill="url(#bg)"/>

  <circle cx="1240" cy="190" r="180" fill="#2563EB" opacity="0.18" filter="url(#glow)"/>
  <circle cx="360" cy="720" r="220" fill="#7C3AED" opacity="0.14" filter="url(#glow)"/>
  <circle cx="980" cy="760" r="140" fill="#22C55E" opacity="0.08" filter="url(#glow)"/>

  <rect x="120" y="120" width="1360" height="660" rx="28" fill="rgba(255,255,255,0.06)" stroke="rgba(255,255,255,0.14)" filter="url(#shadow)"/>
  <rect x="120" y="120" width="1360" height="660" rx="28" fill="none" stroke="rgba(255,255,255,0.10)"/>

  <rect x="180" y="210" width="420" height="480" rx="22" fill="url(#card)" stroke="rgba(255,255,255,0.12)"/>
  <rect x="620" y="210" width="420" height="480" rx="22" fill="url(#card)" stroke="rgba(255,255,255,0.12)"/>
  <rect x="1060" y="210" width="380" height="480" rx="22" fill="url(#card)" stroke="rgba(255,255,255,0.12)"/>

  <rect x="180" y="210" width="420" height="76" rx="22" fill="rgba(255,255,255,0.06)"/>
  <rect x="620" y="210" width="420" height="76" rx="22" fill="rgba(255,255,255,0.06)"/>
  <rect x="1060" y="210" width="380" height="76" rx="22" fill="rgba(255,255,255,0.06)"/>

  <circle cx="220" cy="248" r="8" fill="#22C55E"/>
  <circle cx="246" cy="248" r="8" fill="#F59E0B"/>
  <circle cx="272" cy="248" r="8" fill="#EF4444"/>
  <circle cx="660" cy="248" r="8" fill="#22C55E"/>
  <circle cx="686" cy="248" r="8" fill="#F59E0B"/>
  <circle cx="712" cy="248" r="8" fill="#EF4444"/>
  <circle cx="1100" cy="248" r="8" fill="#22C55E"/>
  <circle cx="1126" cy="248" r="8" fill="#F59E0B"/>
  <circle cx="1152" cy="248" r="8" fill="#EF4444"/>

  <path d="M230 405c0-64 52-116 116-116h74c64 0 116 52 116 116v78c0 64-52 116-116 116h-74c-64 0-116-52-116-116v-78z" fill="rgba(255,255,255,0.03)" stroke="rgba(255,255,255,0.10)"/>
  <path d="M260 510c44-14 76-68 118-68 42 0 70 52 118 68" fill="none" stroke="url(#accent)" stroke-width="10" stroke-linecap="round"/>
  <path d="M290 395c28-18 62-30 98-30 44 0 84 18 114 46" fill="none" stroke="rgba(255,255,255,0.18)" stroke-width="6" stroke-linecap="round"/>
  <circle cx="388" cy="442" r="6" fill="#93C5FD"/>
  <circle cx="340" cy="468" r="6" fill="#A78BFA"/>
  <circle cx="448" cy="478" r="6" fill="#60A5FA"/>

  <rect x="660" y="322" width="340" height="46" rx="14" fill="rgba(255,255,255,0.05)"/>
  <rect x="660" y="382" width="300" height="46" rx="14" fill="rgba(255,255,255,0.05)"/>
  <rect x="660" y="442" width="320" height="46" rx="14" fill="rgba(255,255,255,0.05)"/>
  <path d="M680 572l64-42 70 18 62-64 66 34 58-98" fill="none" stroke="url(#accent)" stroke-width="10" stroke-linecap="round" stroke-linejoin="round"/>
  <circle cx="744" cy="530" r="8" fill="#60A5FA"/>
  <circle cx="814" cy="548" r="8" fill="#A78BFA"/>
  <circle cx="876" cy="484" r="8" fill="#60A5FA"/>
  <circle cx="942" cy="518" r="8" fill="#A78BFA"/>
  <circle cx="1000" cy="420" r="8" fill="#60A5FA"/>

  <path d="M1100 340c0-18 14-32 32-32h236c18 0 32 14 32 32v118c0 18-14 32-32 32h-142l-46 38v-38h-48c-18 0-32-14-32-32V340z" fill="rgba(255,255,255,0.05)" stroke="rgba(255,255,255,0.12)"/>
  <rect x="1124" y="350" width="260" height="14" rx="7" fill="rgba(255,255,255,0.12)"/>
  <rect x="1124" y="380" width="220" height="14" rx="7" fill="rgba(255,255,255,0.10)"/>
  <rect x="1124" y="410" width="240" height="14" rx="7" fill="rgba(255,255,255,0.10)"/>
  <rect x="1124" y="450" width="170" height="14" rx="7" fill="url(#accent)"/>

  <rect x="180" y="146" width="1240" height="6" rx="3" fill="url(#accent)" opacity="0.9"/>
  <text x="200" y="186" fill="#E5E7EB" font-family="ui-sans-serif, system-ui, -apple-system, Segoe UI, Roboto, Arial" font-size="34" font-weight="700">IA Comercial Estratégica</text>
  <text x="200" y="224" fill="#9CA3AF" font-family="ui-sans-serif, system-ui, -apple-system, Segoe UI, Roboto, Arial" font-size="20" font-weight="500">Geoespacial • Machine Learning • IA Generativa — insights acionáveis para priorizar oportunidades</text>

  <text x="210" y="318" fill="#C7D2FE" font-family="ui-sans-serif, system-ui, -apple-system, Segoe UI, Roboto, Arial" font-size="18" font-weight="700">Geoespacial</text>
  <text x="650" y="318" fill="#C7D2FE" font-family="ui-sans-serif, system-ui, -apple-system, Segoe UI, Roboto, Arial" font-size="18" font-weight="700">Preditiva / Diagnóstica</text>
  <text x="1090" y="318" fill="#C7D2FE" font-family="ui-sans-serif, system-ui, -apple-system, Segoe UI, Roboto, Arial" font-size="18" font-weight="700">Prescritiva (LLM)</text>

  <text x="200" y="826" fill="rgba(255,255,255,0.70)" font-family="ui-sans-serif, system-ui, -apple-system, Segoe UI, Roboto, Arial" font-size="16" font-weight="600">Digital Sales Coach • Gaps e oportunidades • Previsão • Churn • Recomendações</text>
</svg>
